<?xml version="1.0" encoding="UTF-8" standalone="no"?>
<!-- Created with Inkscape (http://www.inkscape.org/) -->

<svg
   width="512"
   height="512"
   viewBox="0 0 135.46667 135.46667"
   version="1.1"
   id="svg1"
   xml:space="preserve"
   xmlns="http://www.w3.org/2000/svg"
   xmlns:svg="http://www.w3.org/2000/svg"><defs
     id="defs1"><clipPath
       clipPathUnits="userSpaceOnUse"
       id="clipPath15"><rect
         style="fill:none;fill-opacity:1;stroke:#624040;stroke-width:0.768383;stroke-linecap:square;stroke-linejoin:round;stroke-dasharray:none"
         id="rect16"
         width="130.11311"
         height="130.11311"
         x="33.753662"
         y="69.791214" /></clipPath></defs><g
     id="layer1"
     transform="translate(-22.160801,-53.548901)"
     style="display:none"><g
       id="g10"
       transform="matrix(1.0421683,0,0,1.0421683,-13.542962,-19.191303)"
       clip-path="url(#clipPath15)"
       style="display:inline;opacity:0.54"><rect
         style="fill:#1faafe;fill-opacity:1;stroke:#624040;stroke-width:0.0499999;stroke-linecap:square;stroke-linejoin:miter;stroke-dasharray:none"
         id="rect8"
         width="147.43166"
         height="144.22661"
         x="24.831665"
         y="64.232353" /><path
         style="fill:#000000"
         d="M 23.469947,134.85955 V 53.528577 h 75.391745 75.391758 v 81.330973 81.331 H 98.861692 23.469947 Z m 54.01969,55.96366 c 0.21395,-0.16801 0.5381,-0.62023 0.72032,-1.00494 0.32237,-0.68059 0.33131,-0.83148 0.33131,-5.59015 v -4.89068 h 5.08011 5.08011 v 4.89068 c 0,4.75867 0.009,4.90956 0.33131,5.59015 0.8958,1.89122 3.07693,2.02319 4.29795,0.26005 0.28978,-0.41845 0.30553,-0.67275 0.3462,-5.58964 l 0.0426,-5.15124 h 5.074315 5.074308 v 4.89068 c 0,4.75867 0.009,4.90956 0.33132,5.59015 0.39082,0.82511 0.87471,1.24207 1.66795,1.43725 0.73553,0.18097 1.52225,-0.0387 2.13705,-0.59681 0.84072,-0.76314 0.87017,-0.97947 0.87017,-6.39183 v -4.92944 h 5.15373 5.15374 v 5.02185 c 0,4.8207 0.0125,5.04582 0.31185,5.62043 0.89488,1.71765 3.48381,1.68705 4.36554,-0.0516 0.22422,-0.44212 0.26111,-1.1207 0.30163,-5.54721 l 0.0462,-5.04348 h 2.25373 c 3.67723,0 5.88905,-0.59412 8.18229,-2.19787 1.50436,-1.05206 2.33505,-1.88172 3.37563,-3.37146 1.09924,-1.57372 1.84987,-3.26198 2.32289,-5.22444 0.30251,-1.25505 0.37959,-2.03009 0.44626,-4.48736 l 0.0806,-2.97029 4.65472,-0.0478 c 4.56327,-0.0469 4.66543,-0.055 5.19949,-0.41328 1.98008,-1.3282 1.46956,-4.42434 -0.81767,-4.95886 -0.4889,-0.11426 -2.23407,-0.15927 -4.91773,-0.12685 l -4.15989,0.0503 9e-5,-5.27339 10e-5,-5.27339 4.60154,-0.0481 c 4.17648,-0.0436 4.65377,-0.076 5.16688,-0.35089 1.2946,-0.69345 1.75351,-2.55553 0.95186,-3.86234 -0.71175,-1.16024 -0.87473,-1.192 -6.10187,-1.18884 l -4.61841,0.003 v -5.30658 -5.30659 h 4.5706 c 4.25846,0 4.60947,-0.0214 5.13981,-0.31327 1.90386,-1.04779 1.87233,-3.84257 -0.054,-4.78639 -0.54237,-0.26573 -1.03936,-0.29459 -5.12849,-0.29774 l -4.52792,-0.003 v -5.32146 -5.32146 l 4.52792,-0.003 c 4.08913,-0.003 4.58612,-0.032 5.12849,-0.29774 1.1111,-0.54439 1.72947,-1.86521 1.41067,-3.0131 -0.23545,-0.84776 -0.70185,-1.43803 -1.41067,-1.78532 -0.54219,-0.26566 -1.03886,-0.2946 -5.10944,-0.29775 l -4.50887,-0.003 -0.0795,-3.05785 c -0.0898,-3.45671 -0.33562,-4.860871 -1.20698,-6.895366 -1.36582,-3.18904 -4.06199,-5.91117 -7.0556,-7.12358 -1.6869,-0.68318 -2.82205,-0.88039 -5.64795,-0.98122 l -2.6873,-0.0959 -0.003,-4.703247 c -0.003,-4.24297 -0.0301,-4.76697 -0.27734,-5.35436 -0.42449,-1.00832 -1.06539,-1.41393 -2.23413,-1.41393 -0.8341,0 -1.04369,0.0618 -1.50947,0.44504 -0.97942,0.8059 -0.98231,0.82423 -0.98231,6.21875 v 4.852797 h -5.15374 -5.15373 v -4.900847 c 0,-4.83451 -0.005,-4.9081 -0.33482,-5.43681 -0.52138,-0.83464 -1.21127,-1.25836 -2.04881,-1.25836 -0.9341,0 -1.76198,0.46077 -2.20308,1.22615 -0.34091,0.59153 -0.34683,0.67457 -0.39082,5.48525 l -0.0447,4.884617 h -5.072498 -5.072245 l -0.003,-4.725767 c -0.003,-4.26494 -0.03,-4.78927 -0.27734,-5.37689 -0.42641,-1.01289 -1.06422,-1.41393 -2.24868,-1.41393 -1.09774,0 -1.55539,0.25373 -2.14592,1.18975 -0.3259,0.51658 -0.33131,0.60513 -0.33131,5.42599 v 4.899097 h -5.15377 -5.15373 v -4.900847 c 0,-4.82086 -0.005,-4.90941 -0.33131,-5.42599 -0.51491,-0.81616 -1.04182,-1.15473 -1.91925,-1.23322 -1.00256,-0.0897 -1.84625,0.34014 -2.33615,1.19019 -0.34091,0.59153 -0.34682,0.67457 -0.39082,5.48525 l -0.0447,4.884617 h -1.87343 c -3.38006,0 -5.6256,0.50679 -7.80341,1.76112 -2.32579,1.33956 -3.98321,3.09884 -5.23471,5.55639 -1.19905,2.354555 -1.56468,4.229936 -1.56468,8.025446 v 2.76589 l -4.52792,0.003 c -4.08914,0.003 -4.58613,0.032 -5.1285,0.29775 -1.94917,0.95501 -1.94917,3.84341 0,4.79842 0.54237,0.26574 1.03936,0.29459 5.1285,0.29774 l 4.52792,0.003 v 5.32146 5.32146 l -4.52792,0.003 c -4.08914,0.003 -4.58613,0.032 -5.1285,0.29774 -1.93658,0.94885 -1.96799,3.73302 -0.054,4.78639 0.53036,0.29188 0.88137,0.31327 5.1418,0.31327 h 4.57259 l -0.0388,5.27728 -0.0388,5.27729 -4.56825,0.0215 c -5.01973,0.0236 -5.09729,0.0371 -5.86327,1.01916 -1.14464,1.46749 -0.52306,3.70485 1.18242,4.25607 0.40832,0.13198 1.96799,0.19249 4.96112,0.19249 h 4.36557 l -0.0388,5.243 -0.0388,5.243 -4.56473,0.0387 c -4.54978,0.0386 -4.56681,0.04 -5.19782,0.42982 -1.69075,1.04441 -1.72226,3.52866 -0.0589,4.64439 0.5342,0.35834 0.6354,0.36635 5.21993,0.41339 l 4.67517,0.048 v 2.67821 c 0,1.66748 0.0797,3.12789 0.21133,3.86974 0.49785,2.80698 1.58523,5.14979 3.31109,7.1339 1.31768,1.51483 2.51189,2.45896 4.17158,3.29798 1.89189,0.95642 2.73614,1.12782 6.03702,1.22569 l 2.90818,0.0862 v 5.03942 c 0,4.96457 0.005,5.04722 0.33131,5.56457 0.65668,1.04087 1.56562,1.46919 2.66642,1.25648 0.31246,-0.0604 0.74317,-0.24724 0.95712,-0.41525 z m -7.48884,-16.89922 c -1.33878,-0.062 -2.22827,-0.18407 -2.72412,-0.37398 -2.48054,-0.95007 -4.48868,-3.31805 -5.15534,-6.07914 -0.1907,-0.78986 -0.21927,-5.11001 -0.21927,-33.16729 0,-35.577771 -0.066,-33.06584 0.9216,-35.092821 0.60214,-1.23589 1.99412,-2.737525 3.13976,-3.387105 1.87966,-1.06575 -0.48067,-0.99439 32.818765,-0.99231 25.698678,0.002 30.309678,0.0357 30.982548,0.22887 2.58248,0.7415 4.84396,3.091575 5.65673,5.878356 l 0.32623,1.11854 v 32.24647 c 0,26.98714 -0.0333,32.38896 -0.20446,33.12014 -0.71803,3.06829 -2.91501,5.46596 -5.75915,6.28525 -0.89192,0.25693 -2.89303,0.27677 -29.37628,0.29136 -15.630523,0.009 -29.313683,-0.0257 -30.407013,-0.0763 z m 58.605303,-6.61965 c 0.29439,-0.15866 0.62601,-0.51613 0.77342,-0.83372 0.2437,-0.52504 0.25598,-2.32007 0.22087,-32.26951 -0.0369,-31.46015 -0.0395,-31.71638 -0.33167,-32.06983 -0.68687,-0.83099 0.9355,-0.78899 -30.480648,-0.78899 -31.663665,0 -29.906735,-0.0489 -30.451615,0.84817 -0.2361,0.38872 -0.24965,2.43392 -0.21416,32.3309 0.0376,31.66208 0.0402,31.91876 0.33238,32.272 0.6757,0.81697 -0.90208,0.77635 30.407015,0.78275 27.539048,0.006 29.258828,-0.0101 29.744408,-0.27177 z m -58.016303,-6.70882 v -4.29127 h 4.69379 4.6938 l 3.25768,4.20384 c 1.79172,2.31212 3.25767,4.23986 3.25767,4.28387 0,0.044 -3.57816,0.0834 -7.95147,0.0874 l -7.95147,0.007 z m 17.70601,2.57897 c -0.73536,-0.93919 -2.6,-3.35172 -4.14366,-5.36117 l -2.80665,-3.65354 -0.003,-2.79496 c -0.003,-2.57866 0.0191,-2.81681 0.28596,-3.07731 0.42585,-0.41575 0.79602,-1.5778 0.68808,-2.16004 -0.38896,-2.098 -2.89005,-2.57334 -3.92307,-0.74558 -0.48888,0.865 -0.31755,2.20643 0.35921,2.81234 0.19309,0.17287 0.23058,0.65528 0.23058,2.96686 v 2.76042 h -4.19661 -4.19661 v -3.73297 -3.73297 l 1.80381,-0.003 1.8038,-0.003 2.13512,-3.10973 c 2.99183,-4.35751 3.94326,-5.24131 6.72465,-6.24657 2.18668,-0.79031 1.96278,-1.30063 1.96485,4.47834 0.002,4.94761 0.003,4.96626 0.35531,5.63104 0.19444,0.36685 2.77788,4.45289 5.74096,9.08009 2.96308,4.62721 5.38742,8.45516 5.38742,8.50657 0,0.0514 -1.5464,0.0935 -3.43645,0.0935 h -3.43645 z m 9.830337,-0.24071 C 95.801687,159.27214 88.058717,147.17085 87.641607,146.54776 l -0.4168,-0.62263 0.0389,-4.85768 0.0389,-4.85767 0.94323,-0.11222 c 0.51877,-0.0617 1.14159,-0.18682 1.38403,-0.27799 0.24244,-0.0912 0.51374,-0.16579 0.60289,-0.16581 0.11236,-4e-5 0.16209,0.94156 0.16209,3.06913 v 3.06918 l 1.23709,1.97434 c 0.6804,1.08589 2.07976,3.29676 3.10969,4.91306 5.822193,9.1369 10.053293,15.82928 10.114833,15.99877 0.0536,0.14754 -0.58802,0.19391 -2.71321,0.19611 l -2.783378,0.003 z m 8.795116,0.48576 c -3.09933,-4.83718 -5.60089,-8.80308 -5.66321,-8.97827 -0.0541,-0.15205 0.19626,-0.20293 1.01144,-0.20555 1.28697,-0.004 2.08184,-0.33708 2.68722,-1.12557 0.22756,-0.29638 1.70241,-1.98399 3.27746,-3.75026 2.27249,-2.54839 2.97623,-3.2451 3.40866,-3.37467 0.29972,-0.0898 1.75423,-0.16367 3.23225,-0.16416 l 2.6873,-8.8e-4 v 2.27563 c 0,2.24031 0.006,2.2816 0.37967,2.66073 0.37181,0.37714 0.44087,0.38617 3.34079,0.43709 3.19433,0.0561 4.02285,-0.0685 4.38664,-0.65973 0.27773,-0.45137 0.38318,-10.68586 0.14513,-14.08585 -0.40135,-5.73233 -1.98465,-10.79281 -4.80936,-15.37147 l -1.1042,-1.78984 0.3124,-0.43406 c 0.3115,-0.43281 6.79101,-7.50287 6.87617,-7.50287 0.0247,0 0.0281,12.0269 0.008,26.72645 l -0.0372,26.72644 -9.59646,0.0465 -9.59646,0.0465 z m -8.442188,-13.35352 c -0.655868,-0.98102 -2.040615,-3.14184 -3.077205,-4.80182 l -1.88473,-3.01814 2.7091,-0.091 c 2.940685,-0.0988 3.620775,-0.23308 5.262433,-1.03892 2.99313,-1.46924 5.64148,-4.63505 6.57976,-7.86535 l 0.25966,-0.89396 0.8991,0.21819 c 3.59314,0.87194 6.6285,3.66073 7.75813,7.12794 0.25167,0.77243 0.56623,2.57052 0.57415,3.28186 0.003,0.23384 -0.33566,0.26818 -3.12954,0.3177 l -3.13245,0.0555 -0.95372,0.50748 c -0.83469,0.44414 -1.3477,0.95658 -4.11012,4.10552 -1.73601,1.97893 -3.31406,3.66271 -3.50676,3.74175 -0.1927,0.079 -0.95898,0.14218 -1.70284,0.14032 l -1.352468,-0.003 z m 21.523628,-1.90281 c -0.0419,-0.28395 -0.10268,-2.05313 -0.13497,-3.93153 -0.05,-2.90839 -0.10584,-3.58828 -0.37629,-4.58101 -0.56631,-2.07873 -1.38872,-3.5629 -2.95077,-5.32509 -1.85382,-2.09134 -4.29897,-3.57751 -7.08318,-4.30518 -2.58569,-0.67578 -2.83671,-0.5833 -3.25523,1.19921 -0.76717,3.26747 -2.80964,6.1682 -5.21063,7.40019 -1.599528,0.82075 -2.770606,1.01961 -5.707843,0.96925 l -2.53294,-0.0434 -0.0397,-3.37678 -0.0397,-3.37679 0.66937,-1.22985 c 0.86802,-1.59486 1.25074,-2.93977 1.25074,-4.39529 0,-1.64571 -0.3195,-2.50864 -1.35349,-3.65567 -0.75231,-0.83455 -0.85166,-1.0157 -0.77189,-1.40751 0.12129,-0.59575 -0.16293,-1.29752 -0.61562,-1.52003 -0.86884,-0.42706 -3.01355,-0.10481 -5.70809,0.85766 -2.95969,1.05717 -5.97552,2.77722 -8.44986,4.81929 -1.24747,1.02953 -1.34348,1.08197 -1.12269,0.61313 0.46251,-0.98215 1.51223,-2.42651 2.5849,-3.55669 2.63512,-2.77642 5.56947,-4.43813 10.33418,-5.85219 0.76206,-0.22616 0.99909,-0.40769 2.0615,-1.57885 1.33369,-1.4702 2.32557,-2.10447 4.10137,-2.62266 3.596685,-1.04955 8.928513,-0.76014 13.028923,0.70721 1.52918,0.54722 3.82125,1.76758 5.27407,2.80804 3.47011,2.4852 6.71875,7.3751 8.23923,12.40185 1.15779,3.82767 1.40532,6.25752 1.40549,13.7968 l 1.2e-4,5.49671 -1.12659,0.10274 c -0.61962,0.0565 -1.41176,0.10273 -1.76032,0.10273 -0.60117,0 -0.63765,-0.0265 -0.71,-0.51626 z M 99.047252,121.81279 c 0.38551,-0.0936 1.246918,-0.53999 1.914248,-0.99195 0.66732,-0.45195 1.44523,-0.92085 1.72868,-1.042 0.82975,-0.35463 1.178,-0.78113 1.178,-1.44271 0,-0.76725 -0.16837,-0.91368 -2.44339,-2.12515 -2.461358,-1.31068 -2.802828,-1.42006 -4.165356,-1.33415 -1.520367,0.0959 -2.803807,0.75342 -3.826357,1.96039 -1.15244,1.36029 -1.17953,2.12518 -0.11923,3.36609 1.39181,1.62888 3.36845,2.18377 5.733405,1.60948 z m -2.550555,-1.94549 c -0.67865,-0.19498 -1.39348,-0.65718 -1.76673,-1.14235 -0.1784,-0.2319 -0.14959,-0.31278 0.23395,-0.65668 1.60791,-1.44172 3.259047,-1.50623 4.802315,-0.18765 l 0.584058,0.49903 -0.31008,0.35608 c -0.446948,0.51323 -1.598678,1.13791 -2.282886,1.2382 -0.32395,0.0475 -0.89123,-5e-4 -1.260627,-0.10663 z m -25.9069,4.11106 v -19.93563 h 24.6981 24.698103 l -3.97274,4.33188 -3.97274,4.33187 -0.51537,-0.21818 c -2.55227,-1.08047 -4.9972,-1.76012 -7.55406,-2.09991 -2.08382,-0.27693 -6.565556,-0.11054 -8.228883,0.3055 -2.69539,0.67418 -4.70536,1.85955 -5.91741,3.48974 -0.6245,0.83995 -0.77875,0.95822 -1.37559,1.05478 -1.04913,0.16972 -3.49481,1.13699 -5.22458,2.06634 -4.04615,2.17384 -7.17622,5.30653 -8.92237,8.92983 -0.69798,1.44831 -1.53999,4.0706 -1.79588,5.59292 -0.20647,1.22829 0.0196,1.76126 0.74698,1.76126 0.66058,0 0.94826,-0.22486 1.58811,-1.24131 0.88796,-1.4106 4.19048,-4.35912 6.43231,-5.74285 4.10633,-2.53455 7.92528,-3.1148 9.88538,-1.50198 1.03956,0.85537 1.356,2.44663 0.8003,4.02432 -0.1518,0.431 -0.70866,1.49597 -1.23745,2.36661 -0.89489,1.47341 -1.01082,1.60037 -1.67504,1.8343 -0.39248,0.13823 -1.59645,0.36052 -2.67549,0.49399 -3.36014,0.41562 -5.49837,1.18677 -7.43857,2.68273 -1.1821,0.91144 -2.09981,1.97697 -3.71367,4.31184 -0.72465,1.04841 -1.51606,2.17426 -1.75869,2.50188 l -0.44114,0.59568 -1.2148,1e-5 h -1.21481 z m 46.751713,-7.39268 c -0.48593,-0.44498 -1.38956,-1.22385 -2.00808,-1.73081 l -1.12458,-0.92174 4.58581,-4.9452 4.5858,-4.9452 h 1.87657 1.87657 l -0.004,1.78706 -0.004,1.78706 -4.45063,4.88895 -4.45064,4.88895 z"
         id="path2" /><rect
         style="fill:none;fill-opacity:1;stroke:#624040;stroke-width:0.0522311;stroke-linecap:square;stroke-linejoin:round;stroke-dasharray:none"
         id="rect9"
         width="124.99417"
         height="128.90024"
         x="33.913715"
         y="80.091789"
         ry="20.030916"
         rx="0" /></g></g><g
     id="layer2"
     style="display:inline"><rect
       style="opacity:1;fill:none;stroke:#050000;stroke-width:6.387;stroke-linecap:square;stroke-linejoin:round;stroke-dasharray:none"
       id="rect1"
       width="82.591743"
       height="88.054283"
       x="26.143431"
       y="23.205481"
       ry="12.942643" /><rect
       style="opacity:1;fill:none;stroke:#050000;stroke-width:2.64297;stroke-linecap:square;stroke-linejoin:round;stroke-miterlimit:1;stroke-dasharray:none"
       id="rect3"
       width="61.347393"
       height="66.112717"
       x="36.619404"
       y="34.313408"
       rx="2.9525785e-17" /><path
       style="fill:none;stroke:#050000;stroke-width:2.1;stroke-linecap:square;stroke-linejoin:round;stroke-dasharray:none"
       d="m 61.746529,50.760232 c 0.534171,-1.969763 3.16489,-2.813567 4.557654,-2.697824 1.636921,0.136033 1.615746,0.569995 3.815553,1.572975 1.18232,0.539067 2.131223,0.962846 1.492091,1.263629 -2.529057,1.190202 -2.036386,1.008063 -4.131942,2.16721 -0.836187,0.462533 -2.079798,0.499569 -2.998092,0.20535 -1.563597,-0.500972 -2.809577,-1.668292 -2.735264,-2.51134 z"
       id="path4" /><path
       id="path8"
       style="display:inline;fill:#050000;stroke-width:0.4"
       d="m 57.162109,47.136719 c -0.138457,-0.0023 -0.273225,0.01608 -0.40625,0.05469 -3.47637,1.012002 -6.725514,2.554909 -9.519531,4.75 -2.23825,1.758459 -3.98679,3.780756 -5.279297,5.91211 -1.069868,1.764221 -1.736034,3.427198 -2.138672,4.789062 -0.183793,0.621653 -0.302861,1.148292 -0.378906,1.550781 -0.03663,0.19389 -0.06204,0.353514 -0.08008,0.478516 -0.0086,0.05938 -0.01634,0.109488 -0.02148,0.150391 0.004,0.0047 0.0073,0.01 0.0098,0.01563 l -0.01953,0.07422 c -6.67e-4,1.1e-5 -0.0013,1.1e-5 -0.002,0 -1.5e-4,0.0013 1.29e-4,0.0047 0,0.0059 1.66e-4,0.0026 1.66e-4,0.0052 0,0.0078 l -0.0039,0.01758 c -6.67e-4,1.1e-5 -0.0013,1.1e-5 -0.002,0 -1.04e-4,5.17e-4 1.07e-4,0.0014 0,0.002 -0.0037,0.01812 -0.0087,0.04086 -0.01367,0.06445 -0.0049,0.02368 -0.01,0.04883 -0.01367,0.06641 -0.0018,0.0088 -0.0048,0.01444 -0.0059,0.01953 -5.32e-4,0.0025 2.83e-4,0.0045 0,0.0059 v 0.002 l -0.0059,0.03906 c -0.01905,0.198864 -0.0011,0.388242 0.05078,0.560547 0.05193,0.172389 0.136463,0.323225 0.244141,0.453125 0.106999,0.129083 0.23496,0.234923 0.375,0.314453 0.14,0.0795 0.293187,0.1344 0.449219,0.164063 0.31272,0.05946 0.647216,0.02121 0.941406,-0.140625 0.147274,-0.08101 0.280699,-0.192286 0.392578,-0.333985 0.10878,-0.137771 0.194645,-0.300574 0.25,-0.486328 10e-4,-0.0034 0.0023,-0.0067 0.0039,-0.0098 0.0014,-0.0028 0.0062,-0.01464 0.01367,-0.0293 0.01243,-0.02442 0.03008,-0.06177 0.05664,-0.111329 0.100918,-0.1882 0.29921,-0.505079 0.65039,-0.945312 0.746539,-0.935848 2.123164,-2.326937 4.56836,-4.089844 3.423783,-2.468437 6.22129,-3.312516 8.099609,-3.572265 0.03191,-0.0045 0.06215,-0.0078 0.0918,-0.01172 1.796033,-0.234007 2.91161,0.06242 2.998047,0.08594 0.002,5.66e-4 0.004,0.0012 0.0059,0.002 0.425348,0.157495 0.761836,0.27614 1.019531,0.355469 0.12947,0.03986 0.244306,0.06996 0.34375,0.0918 0.09646,0.02118 0.191577,0.0381 0.277344,0.03906 0.04277,4.83e-4 0.09176,-0.0048 0.142578,-0.01563 0.05108,-0.01084 0.108283,-0.02945 0.164063,-0.06641 0.0287,-0.01902 0.05409,-0.04003 0.07813,-0.06641 0.02452,-0.02692 0.04448,-0.05735 0.06055,-0.08789 0.03261,-0.06202 0.04712,-0.123807 0.05078,-0.175781 0.0036,-0.05089 -0.0027,-0.09879 -0.0098,-0.138672 -0.0069,-0.0388 -0.01792,-0.07406 -0.0293,-0.109375 -0.02182,-0.06773 -0.04984,-0.140498 -0.08008,-0.207031 -0.06286,-0.138297 -0.141833,-0.288687 -0.21875,-0.460937 -0.07631,-0.170894 -0.151506,-0.360883 -0.208984,-0.566407 -0.057,-0.203822 -0.09467,-0.421263 -0.09961,-0.652343 -0.0049,-0.228905 0.0229,-0.473231 0.103515,-0.730469 0.01422,-0.04628 0.01835,-0.09657 0.01172,-0.144531 -0.01646,-0.124858 -0.06408,-0.233617 -0.130859,-0.326172 -0.06528,-0.09048 -0.147833,-0.163437 -0.232422,-0.222657 -0.08472,-0.05931 -0.178101,-0.109376 -0.273438,-0.15039 -0.0952,-0.04095 -0.194181,-0.07474 -0.296875,-0.103516 -0.203152,-0.05691 -0.422685,-0.09543 -0.626953,-0.115234 -0.193907,-0.0188 -0.384078,-0.02235 -0.546875,-0.01172 -0.002,9.5e-5 -0.0039,9.5e-5 -0.0059,0 -0.182585,-0.0046 -1.390928,-0.009 -3.404297,0.566406 -2.150921,0.614681 -5.216937,1.891771 -8.902344,4.548828 -0.382793,0.275981 -0.72211,0.537028 -1.035156,0.78711 -0.05367,0.04283 -0.126244,-0.02186 -0.08984,-0.08008 1.026227,-1.615046 2.439599,-3.299954 4.402344,-4.841797 2.167017,-1.702313 4.969193,-3.202674 8.59375,-4.257813 0.185141,-0.05416 0.348155,-0.143025 0.486328,-0.255859 0.141096,-0.115223 0.256006,-0.254999 0.339844,-0.408203 0.08603,-0.157217 0.139711,-0.329523 0.160156,-0.50586 0.0211,-0.182036 0.0058,-0.36695 -0.04687,-0.546875 -0.05399,-0.185423 -0.142267,-0.347237 -0.253906,-0.484375 -0.115981,-0.142471 -0.25682,-0.258603 -0.408203,-0.341796 -0.158484,-0.08709 -0.331437,-0.139575 -0.50586,-0.160157 -0.04611,-0.0055 -0.09262,-0.009 -0.138672,-0.0098 z" /><path
       id="path12"
       style="display:inline;fill:#050000"
       d="m 58.714246,53.486141 c -0.006,1.29e-4 -0.01256,8.24e-4 -0.01912,0.0015 -0.01302,0.0014 -0.02887,0.0044 -0.04599,0.01085 -0.01738,0.0066 -0.03717,0.01753 -0.05581,0.03514 -0.01929,0.01823 -0.03422,0.04068 -0.04289,0.06615 -0.0085,0.02485 -0.0097,0.04857 -0.0083,0.0677 0.0015,0.01891 0.0059,0.0349 0.01033,0.04754 0.0087,0.02459 0.02134,0.04535 0.03204,0.06046 0.01138,0.01607 0.02414,0.03147 0.03772,0.04599 0.01386,0.01482 0.02957,0.03008 0.04651,0.04548 a 0.10071126,0.00275642 22.705878 0 0 0.100769,0.03876 c 0,0 0.02646,0.01095 0.06098,0.0279 l -0.06615,-0.01499 c 0.03511,0.01724 0.07627,0.03897 0.113688,0.06305 0.01981,0.01274 0.03697,0.02513 0.05116,0.03669 0.0014,0.0012 0.0028,0.0025 0.0041,0.0036 -0.0029,5.3e-5 -0.0065,-1.31e-4 -0.01085,-5.17e-4 -0.01271,-0.0012 -0.03048,-0.0047 -0.05374,-0.0124 -0.04558,-0.01502 -0.101227,-0.04212 -0.172082,-0.08217 -0.06872,-0.03884 -0.136329,-0.08069 -0.220142,-0.131258 -0.07548,-0.04555 -0.160379,-0.09554 -0.247013,-0.138493 -0.08305,-0.04117 -0.174832,-0.07981 -0.269235,-0.102319 -0.04628,-0.01103 -0.09422,-0.01819 -0.14366,-0.02015 -0.04866,-0.0019 -0.09892,0.0013 -0.149345,0.0124 -0.04979,0.01101 -0.09913,0.02945 -0.146761,0.05633 -0.0468,0.02641 -0.0909,0.06049 -0.131775,0.10232 -0.384557,0.391297 -0.68235,0.719755 -0.897103,0.994771 -0.10519,0.134709 -0.191748,0.258331 -0.259415,0.371554 -0.06659,0.111421 -0.116491,0.215342 -0.147795,0.313159 -0.03096,0.09675 -0.0445,0.19075 -0.03566,0.28112 0.0044,0.04485 0.01394,0.08788 0.02946,0.129191 0.01542,0.04104 0.03609,0.07901 0.06098,0.114205 0.04916,0.0695 0.11343,0.125742 0.186552,0.173632 0.07176,0.047 0.154185,0.0876 0.243396,0.124024 0.174745,0.07135 0.38804,0.133012 0.622184,0.201538 0.229846,0.06727 0.486712,0.143139 0.753443,0.242879 0.2619,0.09793 0.537079,0.2202 0.809252,0.382923 0.267208,0.159755 0.534096,0.359854 0.785482,0.617533 0.148354,0.156967 0.30046,0.356259 0.439767,0.594796 0.135071,0.231281 0.258547,0.500099 0.353983,0.803051 0.182979,0.580853 0.267181,1.299159 0.121957,2.120801 -0.04483,0.253624 -0.11118,0.526659 -0.223243,0.832508 -0.110144,0.300613 -0.265605,0.636647 -0.492476,1.022676 -0.443096,0.753945 -1.162254,1.705059 -2.369881,2.976046 -0.0045,0.0048 -0.0087,0.0092 -0.0124,0.01344 -0.01865,0.0056 -0.03688,0.01123 -0.05581,0.01705 -0.0034,0.001 -0.0094,0.0024 -0.01964,0.0047 -0.01,0.0023 -0.02258,0.0049 -0.03721,0.0078 -0.02928,0.0057 -0.06549,0.01201 -0.108521,0.01912 -0.08599,0.0142 -0.226653,0.03594 -0.312642,0.05013 -0.118247,0.01932 -0.247495,0.04177 -0.376204,0.06718 -0.128057,0.02528 -0.257109,0.05406 -0.374138,0.08682 -0.523465,0.146541 -1.016987,0.257993 -1.65933,0.399976 -0.641553,0.141809 -1.426667,0.312753 -2.528528,0.578776 -0.903929,0.218237 -1.702897,0.454307 -2.426725,0.727088 -0.726038,0.273614 -1.375652,0.583993 -1.978174,0.950329 -0.604886,0.367772 -1.160337,0.790958 -1.696537,1.286743 -0.538607,0.498011 -1.057309,1.06871 -1.5844,1.728577 -0.125131,0.156653 -0.280197,0.339825 -0.457336,0.54777 -0.178698,0.209775 -0.377744,0.442508 -0.590662,0.699182 -0.432582,0.521479 -0.911345,1.1284 -1.378727,1.816944 -0.960958,1.415677 -1.782189,2.649253 -1.78232,2.64945 -0.111869,0.168236 -0.182943,0.34988 -0.217558,0.533301 -0.03535,0.187339 -0.03254,0.37635 0.0036,0.556038 0.03621,0.179687 0.106722,0.355157 0.211874,0.514181 0.102954,0.155699 0.238988,0.295482 0.40721,0.40721 0.164839,0.109511 0.345469,0.182258 0.532267,0.217558 0.183507,0.03468 0.372501,0.03306 0.555522,-0.0036 0.18024,-0.03617 0.354886,-0.106516 0.513147,-0.21084 0.156235,-0.102989 0.296257,-0.2391 0.407727,-0.406177 -3.4e-5,5.2e-5 0.826365,-1.242279 1.766817,-2.627746 0.460353,-0.678188 0.970314,-1.413995 1.388546,-2.008663 0.207506,-0.295044 0.391479,-0.553964 0.534334,-0.751893 0.07128,-0.09876 0.132273,-0.181897 0.180351,-0.246496 0.02402,-0.03228 0.04438,-0.05995 0.0615,-0.08217 0.01732,-0.02249 0.03015,-0.03834 0.03876,-0.04857 0.395272,-0.470255 0.780444,-0.893178 1.183907,-1.274858 0.403025,-0.381265 0.824725,-0.72184 1.292945,-1.026811 0.468444,-0.305116 0.984732,-0.575358 1.577681,-0.816487 0.594061,-0.241582 1.265008,-0.453778 2.041736,-0.641305 1.016101,-0.245319 1.650296,-0.368281 2.199349,-0.45992 0.276686,-0.04618 0.533715,-0.08469 0.806669,-0.126607 0.275214,-0.04226 0.565794,-0.08796 0.910022,-0.148312 0.693881,-0.121656 1.307108,-0.23947 1.860868,-0.428397 0.280802,-0.0958 0.545719,-0.20956 0.796334,-0.350883 0.253593,-0.143003 0.491011,-0.313022 0.715202,-0.518832 0.473459,-0.434642 0.901488,-0.959412 1.278992,-1.524971 0.383273,-0.574202 0.716872,-1.193674 0.996838,-1.81281 0.284762,-0.62974 0.514776,-1.261631 0.687297,-1.852083 0.175789,-0.601642 0.292679,-1.163372 0.346749,-1.644861 0.110992,-0.988372 0.0483,-1.832693 -0.112655,-2.527494 -0.169884,-0.733329 -0.45139,-1.309913 -0.769462,-1.730644 -0.5252,-0.694709 -1.022837,-1.248301 -1.460376,-1.680517 -0.455041,-0.449504 -0.854013,-0.77633 -1.16582,-1.000456 -0.161823,-0.116319 -0.302945,-0.20693 -0.42013,-0.274402 -0.05975,-0.0344 -0.11355,-0.06298 -0.161747,-0.0863 -0.04856,-0.0235 -0.09275,-0.04242 -0.131258,-0.05581 -0.01951,-0.0068 -0.03838,-0.01267 -0.05684,-0.01705 -0.01815,-0.0043 -0.0386,-0.0078 -0.05943,-0.0088 -0.0053,-2.67e-4 -0.01103,-6.47e-4 -0.01705,-5.17e-4 z m 0.05581,0.119373 0.06976,0.02739 c 1.87e-4,0.0011 3.51e-4,0.002 5.17e-4,0.0031 l -0.0098,-0.0021 c -0.03452,-0.01695 -0.06046,-0.02842 -0.06046,-0.02842 z" /><path
       style="display:inline;fill:none;stroke:#050000;stroke-width:2.6;stroke-linecap:round;stroke-linejoin:round;stroke-dasharray:none"
       d="m 57.271357,48.631078 c 4.438175,-5.807402 10.765096,-5.218709 12.747952,-5.19361 3.729957,0.04721 8.486081,1.282298 10.906583,2.644018 4.138685,2.328331 7.522839,5.712662 9.726215,9.915075 5.2153,9.946936 3.549198,27.435061 3.549198,27.435061 l -6.076859,0.04959 c 0,0 0.301756,-7.868941 -0.56756,-10.761177 -1.295665,-4.31071 -4.417533,-6.394513 -5.39589,-7.003966 -2.079409,-1.295336 -5.961426,-2.717149 -6.007139,-1.98105 -0.199332,3.209781 -2.926838,6.842758 -4.906967,8.456166 -2.930586,2.38784 -9.224437,2.027517 -11.318261,2.002572"
       id="path10" /><g
       id="g21"><path
         style="fill:none;stroke:#050000;stroke-width:2.83302;stroke-linecap:round;stroke-linejoin:round;stroke-dasharray:none"
         d="m 36.805144,78.729423 4.318167,-0.03344"
         id="path13" /></g><g
       id="g20"><ellipse
         style="fill:#050000;fill-opacity:1;stroke:#050000;stroke-width:0.917558;stroke-linecap:square;stroke-linejoin:round;stroke-dasharray:none"
         id="path14"
         ry="1.9217174"
         rx="1.89811"
         cy="79.934387"
         cx="47.911057" /><path
         d="m 46.607422,81.0625 -0.09833,0.854534 0.0788,6.584919 c -0.0012,0.281581 0.09236,0.555379 0.265625,0.777344 l 9.013671,11.517583 0.773438,0.98828 1.976562,-1.54688 L 57.84375,99.25 49.097656,88.074219 c 0,0 0.123327,-4.877711 0.09826,-6.045091 -0.02507,-1.16738 -0.01971,-0.640117 -0.01971,-0.640117 l -1.284392,-0.163255 z"
         id="path18"
         style="fill:#050000" /><path
         style="fill:#050000;fill-opacity:1;stroke:#050000;stroke-width:2.509;stroke-linecap:square;stroke-linejoin:round;stroke-dasharray:none"
         d="m 37.71244,88.93772 h 9.218574"
         id="path15" /></g><path
       style="baseline-shift:baseline;display:inline;overflow:visible;opacity:1;vector-effect:none;fill:#050000;fill-rule:nonzero;stroke:none;stroke-linecap:square;stroke-linejoin:round;enable-background:accumulate;stop-color:#000000;stop-opacity:1"
       d="m 46.607422,81.0625 c -0.02294,0.199404 -0.05709,0.496092 -0.09833,0.854534 0.02373,1.983389 0.05041,4.212152 0.0788,6.584917 -0.0012,0.271056 0.08599,0.547223 0.265625,0.777346 2.97939,3.807037 6.012762,7.68305 9.013671,11.517583 0.263372,0.33653 0.52383,0.66934 0.773438,0.98828 0.338231,-0.2647 0.668666,-0.52331 0.988281,-0.77344 0.315696,-0.24707 0.646179,-0.50571 0.988281,-0.77344 C 58.372081,99.925088 58.111731,99.59242 57.84375,99.25 54.981208,95.592236 52.041662,91.836077 49.097656,88.074219 c 0,0 0.03092,-1.223767 0.05853,-2.584778 0.01391,-0.685631 0.02694,-1.403627 0.03495,-2.023279 0.004,-0.311513 0.0068,-0.597555 0.0078,-0.842118 9.76e-4,-0.245822 1.5e-4,-0.449372 -0.003,-0.594916 -0.0063,-0.293593 -0.01066,-0.478694 -0.01366,-0.592507 -0.0015,-0.05758 -0.0027,-0.09705 -0.0036,-0.123039 -4.56e-4,-0.01308 -8.45e-4,-0.02276 -0.0012,-0.02961 -1.66e-4,-0.0034 -3.17e-4,-0.0062 -4.54e-4,-0.0083 -9.76e-4,-0.0023 -0.001,-7.24e-4 -0.0011,0.0012 -4.9e-5,0.0019 -8.8e-5,0.0042 -1.2e-4,0.0068 -6.3e-5,0.0052 -9.5e-5,0.01159 -1.04e-4,0.0186 -9e-6,0.0071 5e-6,0.01475 3.2e-5,0.02252 1.13e-4,0.03184 4.46e-4,0.06414 4.46e-4,0.06414 -0.463898,-0.05897 -0.897983,-0.11414 -1.284392,-0.163255 -0.53557,-0.06808 -0.979554,-0.124509 -1.284392,-0.163256 z m 0,0 c 0.304838,0.03875 0.748822,0.09518 1.284392,0.163256 0.386409,0.04912 0.820494,0.10429 1.284392,0.163255 0,0 -3.33e-4,-0.0323 -4.46e-4,-0.06414 -2.7e-5,-0.0078 -4.1e-5,-0.01547 -3.2e-5,-0.02252 9e-6,-0.007 4.1e-5,-0.0134 1.04e-4,-0.0186 3.2e-5,-0.0026 7.1e-5,-0.0049 1.2e-4,-0.0068 4.8e-5,-0.0019 1.06e-4,-0.0035 1.73e-4,-0.0046 0.001,0.0055 0.0012,0.0082 0.0014,0.01166 3.3e-4,0.0068 7.19e-4,0.01653 0.0012,0.02961 9.05e-4,0.02599 0.0021,0.06546 0.0036,0.123039 0.003,0.113813 0.0074,0.298914 0.01366,0.592507 0.0031,0.145544 0.004,0.349094 0.003,0.594916 -9.71e-4,0.244563 -0.0037,0.530605 -0.0078,0.842115 -0.008,0.619655 -0.02104,1.337651 -0.03495,2.023279 -0.02761,1.361014 -0.05853,2.584781 -0.05853,2.584781 2.944006,3.761858 5.883552,7.518017 8.746093,11.17578 0.267982,0.342421 0.528332,0.675089 0.773439,0.988281 -0.342102,0.26773 -0.672585,0.52637 -0.988281,0.77344 -0.319615,0.25013 -0.65005,0.50874 -0.988281,0.77344 -0.249608,-0.31894 -0.510066,-0.65175 -0.773438,-0.98828 -3.000909,-3.834533 -6.034281,-7.710546 -9.013671,-11.517583 -0.179633,-0.230123 -0.26678,-0.50629 -0.265625,-0.777344 -0.02839,-2.372767 -0.05506,-4.60153 -0.0788,-6.584919 0.04124,-0.358442 0.07538,-0.65513 0.09833,-0.854534 z"
       id="path16" /><g
       id="g22"><path
         style="fill:none;fill-opacity:1;stroke:#050000;stroke-width:2.509;stroke-linecap:square;stroke-linejoin:round;stroke-dasharray:none"
         d="m 54.025002,69.19473 0.133543,10.609467 12.986398,20.501623"
         id="path21" /></g><g
       id="g23"><path
         style="fill:none;fill-opacity:1;stroke:#050000;stroke-width:2.49784;stroke-linecap:round;stroke-linejoin:round;stroke-dasharray:none"
         d="m 67.416923,86.644445 h 4.629608 l 7.889258,-8.653669 7.558518,-0.09223"
         id="path23" /><path
         style="fill:none;fill-opacity:1;stroke:#050000;stroke-width:2.509;stroke-linecap:round;stroke-linejoin:round;stroke-dasharray:none"
         d="m 59.56025,65.569694 v 8.747078 l 16.525967,26.141068"
         id="path22" /></g><g
       id="g25"><path
         style="fill:none;fill-opacity:1;stroke:#050000;stroke-width:2.509;stroke-linecap:round;stroke-linejoin:round;stroke-dasharray:none"
         d="M 82.087559,45.46572 92.47864,34.220436"
         id="path24" /><path
         style="fill:none;fill-opacity:1;stroke:#050000;stroke-width:2.509;stroke-linecap:round;stroke-linejoin:round;stroke-dasharray:none"
         d="M 87.6296,51.375005 97.753595,40.263264"
         id="path25" /></g><g
       id="g29"
       transform="translate(0,0.03804616)"><path
         style="fill:none;fill-opacity:1;stroke:#050000;stroke-width:5.509;stroke-linecap:round;stroke-linejoin:round;stroke-dasharray:none"
         d="M 25.251859,42.125438 C 14.675524,42.066366 14.675524,42.066366 14.675524,42.066366"
         id="path26" /><path
         style="fill:none;fill-opacity:1;stroke:#050000;stroke-width:5.509;stroke-linecap:round;stroke-linejoin:round;stroke-dasharray:none"
         d="M 25.401476,58.763 C 14.825397,58.85743 14.825397,58.85743 14.825397,58.85743"
         id="path27" /><path
         style="fill:none;fill-opacity:1;stroke:#050000;stroke-width:5.509;stroke-linecap:round;stroke-linejoin:round;stroke-dasharray:none"
         d="m 25.267933,75.477312 c -10.576079,0.09443 -10.576079,0.09443 -10.576079,0.09443"
         id="path28" /><path
         style="fill:none;fill-opacity:1;stroke:#050000;stroke-width:5.509;stroke-linecap:round;stroke-linejoin:round;stroke-dasharray:none"
         d="m 25.201161,92.191625 c -10.576079,0.09443 -10.576079,0.09443 -10.576079,0.09443"
         id="path29" /></g><g
       id="g29-1"
       transform="translate(94.580504,0.03804616)"><path
         style="fill:none;fill-opacity:1;stroke:#050000;stroke-width:5.509;stroke-linecap:round;stroke-linejoin:round;stroke-dasharray:none"
         d="M 25.251859,42.125438 C 14.675524,42.066366 14.675524,42.066366 14.675524,42.066366"
         id="path26-7" /><path
         style="fill:none;fill-opacity:1;stroke:#050000;stroke-width:5.509;stroke-linecap:round;stroke-linejoin:round;stroke-dasharray:none"
         d="M 25.401476,58.763 C 14.825397,58.85743 14.825397,58.85743 14.825397,58.85743"
         id="path27-1" /><path
         style="fill:none;fill-opacity:1;stroke:#050000;stroke-width:5.509;stroke-linecap:round;stroke-linejoin:round;stroke-dasharray:none"
         d="m 25.267933,75.477312 c -10.576079,0.09443 -10.576079,0.09443 -10.576079,0.09443"
         id="path28-1" /><path
         style="fill:none;fill-opacity:1;stroke:#050000;stroke-width:5.509;stroke-linecap:round;stroke-linejoin:round;stroke-dasharray:none"
         d="m 25.201161,92.191625 c -10.576079,0.09443 -10.576079,0.09443 -10.576079,0.09443"
         id="path29-5" /></g><g
       id="g29-1-4"
       transform="rotate(-90,18.133256,18.065305)"><path
         style="fill:none;fill-opacity:1;stroke:#050000;stroke-width:5.509;stroke-linecap:round;stroke-linejoin:round;stroke-dasharray:none"
         d="M 25.251859,42.125438 C 14.675524,42.066366 14.675524,42.066366 14.675524,42.066366"
         id="path26-7-2" /><path
         style="fill:none;fill-opacity:1;stroke:#050000;stroke-width:5.509;stroke-linecap:round;stroke-linejoin:round;stroke-dasharray:none"
         d="M 25.401476,58.763 C 14.825397,58.85743 14.825397,58.85743 14.825397,58.85743"
         id="path27-1-3" /><path
         style="fill:none;fill-opacity:1;stroke:#050000;stroke-width:5.509;stroke-linecap:round;stroke-linejoin:round;stroke-dasharray:none"
         d="m 25.267933,75.477312 c -10.576079,0.09443 -10.576079,0.09443 -10.576079,0.09443"
         id="path28-1-2" /><path
         style="fill:none;fill-opacity:1;stroke:#050000;stroke-width:5.509;stroke-linecap:round;stroke-linejoin:round;stroke-dasharray:none"
         d="m 25.201161,92.191625 c -10.576079,0.09443 -10.576079,0.09443 -10.576079,0.09443"
         id="path29-5-2" /></g><g
       id="g29-1-4-7"
       transform="rotate(-90,69.770031,69.70208)"><path
         style="fill:none;fill-opacity:1;stroke:#050000;stroke-width:5.509;stroke-linecap:round;stroke-linejoin:round;stroke-dasharray:none"
         d="M 25.251859,42.125438 C 14.675524,42.066366 14.675524,42.066366 14.675524,42.066366"
         id="path26-7-2-6" /><path
         style="fill:none;fill-opacity:1;stroke:#050000;stroke-width:5.509;stroke-linecap:round;stroke-linejoin:round;stroke-dasharray:none"
         d="M 25.401476,58.763 C 14.825397,58.85743 14.825397,58.85743 14.825397,58.85743"
         id="path27-1-3-1" /><path
         style="fill:none;fill-opacity:1;stroke:#050000;stroke-width:5.509;stroke-linecap:round;stroke-linejoin:round;stroke-dasharray:none"
         d="m 25.267933,75.477312 c -10.576079,0.09443 -10.576079,0.09443 -10.576079,0.09443"
         id="path28-1-2-8" /><path
         style="fill:none;fill-opacity:1;stroke:#050000;stroke-width:5.509;stroke-linecap:round;stroke-linejoin:round;stroke-dasharray:none"
         d="m 25.201161,92.191625 c -10.576079,0.09443 -10.576079,0.09443 -10.576079,0.09443"
         id="path29-5-2-9" /></g></g></svg>
